<svg width="1984" height="537" viewBox="0 0 1984 537" fill="none" xmlns="http://www.w3.org/2000/svg">
<rect width="1984" height="537" rx="20" fill="#143464"/>
<path d="M310.576 320.608H328.752V369.632L351.664 345.824H373.168L348.208 370.144L375.984 412H353.968L335.792 382.432L328.752 389.216V412H310.576V320.608ZM398.54 378.976C398.54 381.621 398.796 384.224 399.308 386.784C399.82 389.259 400.673 391.52 401.868 393.568C403.148 395.531 404.812 397.109 406.86 398.304C408.908 399.499 411.468 400.096 414.54 400.096C417.612 400.096 420.172 399.499 422.22 398.304C424.353 397.109 426.017 395.531 427.212 393.568C428.492 391.52 429.388 389.259 429.9 386.784C430.412 384.224 430.668 381.621 430.668 378.976C430.668 376.331 430.412 373.728 429.9 371.168C429.388 368.608 428.492 366.347 427.212 364.384C426.017 362.421 424.353 360.843 422.22 359.648C420.172 358.368 417.612 357.728 414.54 357.728C411.468 357.728 408.908 358.368 406.86 359.648C404.812 360.843 403.148 362.421 401.868 364.384C400.673 366.347 399.82 368.608 399.308 371.168C398.796 373.728 398.54 376.331 398.54 378.976ZM380.364 378.976C380.364 373.685 381.175 368.907 382.796 364.64C384.417 360.288 386.721 356.619 389.708 353.632C392.695 350.56 396.279 348.213 400.46 346.592C404.641 344.885 409.335 344.032 414.54 344.032C419.745 344.032 424.439 344.885 428.62 346.592C432.887 348.213 436.513 350.56 439.5 353.632C442.487 356.619 444.791 360.288 446.412 364.64C448.033 368.907 448.844 373.685 448.844 378.976C448.844 384.267 448.033 389.045 446.412 393.312C444.791 397.579 442.487 401.248 439.5 404.32C436.513 407.307 432.887 409.611 428.62 411.232C424.439 412.853 419.745 413.664 414.54 413.664C409.335 413.664 404.641 412.853 400.46 411.232C396.279 409.611 392.695 407.307 389.708 404.32C386.721 401.248 384.417 397.579 382.796 393.312C381.175 389.045 380.364 384.267 380.364 378.976ZM460.662 345.824H477.942V355.04H478.326C480.63 351.2 483.617 348.427 487.286 346.72C490.955 344.928 494.71 344.032 498.55 344.032C503.414 344.032 507.382 344.715 510.454 346.08C513.611 347.36 516.086 349.195 517.878 351.584C519.67 353.888 520.907 356.747 521.59 360.16C522.358 363.488 522.742 367.2 522.742 371.296V412H504.566V374.624C504.566 369.163 503.713 365.109 502.006 362.464C500.299 359.733 497.27 358.368 492.918 358.368C487.969 358.368 484.385 359.861 482.166 362.848C479.947 365.749 478.838 370.571 478.838 377.312V412H460.662V345.824ZM559.577 345.824H572.889V357.984H559.577V390.752C559.577 393.824 560.089 395.872 561.113 396.896C562.137 397.92 564.185 398.432 567.257 398.432C568.281 398.432 569.262 398.389 570.201 398.304C571.14 398.219 572.036 398.091 572.889 397.92V412C571.353 412.256 569.646 412.427 567.769 412.512C565.892 412.597 564.057 412.64 562.265 412.64C559.449 412.64 556.761 412.427 554.201 412C551.726 411.659 549.508 410.933 547.545 409.824C545.668 408.715 544.174 407.136 543.065 405.088C541.956 403.04 541.401 400.352 541.401 397.024V357.984H530.393V345.824H541.401V325.984H559.577V345.824ZM581.537 345.824H598.817V358.112H599.073C599.926 356.064 601.078 354.187 602.529 352.48C603.98 350.688 605.644 349.195 607.521 348C609.398 346.72 611.404 345.739 613.537 345.056C615.67 344.373 617.889 344.032 620.193 344.032C621.388 344.032 622.71 344.245 624.161 344.672V361.568C623.308 361.397 622.284 361.269 621.089 361.184C619.894 361.013 618.742 360.928 617.633 360.928C614.305 360.928 611.489 361.483 609.185 362.592C606.881 363.701 605.004 365.237 603.553 367.2C602.188 369.077 601.206 371.296 600.609 373.856C600.012 376.416 599.713 379.189 599.713 382.176V412H581.537V345.824ZM645.165 378.976C645.165 381.621 645.421 384.224 645.933 386.784C646.445 389.259 647.298 391.52 648.493 393.568C649.773 395.531 651.437 397.109 653.485 398.304C655.533 399.499 658.093 400.096 661.165 400.096C664.237 400.096 666.797 399.499 668.845 398.304C670.978 397.109 672.642 395.531 673.837 393.568C675.117 391.52 676.013 389.259 676.525 386.784C677.037 384.224 677.293 381.621 677.293 378.976C677.293 376.331 677.037 373.728 676.525 371.168C676.013 368.608 675.117 366.347 673.837 364.384C672.642 362.421 670.978 360.843 668.845 359.648C666.797 358.368 664.237 357.728 661.165 357.728C658.093 357.728 655.533 358.368 653.485 359.648C651.437 360.843 649.773 362.421 648.493 364.384C647.298 366.347 646.445 368.608 645.933 371.168C645.421 373.728 645.165 376.331 645.165 378.976ZM626.989 378.976C626.989 373.685 627.8 368.907 629.421 364.64C631.042 360.288 633.346 356.619 636.333 353.632C639.32 350.56 642.904 348.213 647.085 346.592C651.266 344.885 655.96 344.032 661.165 344.032C666.37 344.032 671.064 344.885 675.245 346.592C679.512 348.213 683.138 350.56 686.125 353.632C689.112 356.619 691.416 360.288 693.037 364.64C694.658 368.907 695.469 373.685 695.469 378.976C695.469 384.267 694.658 389.045 693.037 393.312C691.416 397.579 689.112 401.248 686.125 404.32C683.138 407.307 679.512 409.611 675.245 411.232C671.064 412.853 666.37 413.664 661.165 413.664C655.96 413.664 651.266 412.853 647.085 411.232C642.904 409.611 639.32 407.307 636.333 404.32C633.346 401.248 631.042 397.579 629.421 393.312C627.8 389.045 626.989 384.267 626.989 378.976ZM707.799 320.608H725.975V412H707.799V320.608ZM773.695 400.096C776.682 400.096 779.156 399.499 781.119 398.304C783.167 397.109 784.788 395.573 785.983 393.696C787.263 391.733 788.159 389.472 788.671 386.912C789.183 384.352 789.439 381.749 789.439 379.104C789.439 376.459 789.14 373.856 788.543 371.296C788.031 368.736 787.135 366.475 785.855 364.512C784.575 362.464 782.911 360.843 780.863 359.648C778.9 358.368 776.468 357.728 773.567 357.728C770.58 357.728 768.063 358.368 766.015 359.648C764.052 360.843 762.431 362.421 761.151 364.384C759.956 366.347 759.103 368.608 758.591 371.168C758.079 373.728 757.823 376.373 757.823 379.104C757.823 381.749 758.079 384.352 758.591 386.912C759.188 389.472 760.084 391.733 761.279 393.696C762.559 395.573 764.223 397.109 766.271 398.304C768.319 399.499 770.794 400.096 773.695 400.096ZM740.287 345.824H757.567V354.272H757.823C760.042 350.688 762.858 348.085 766.271 346.464C769.684 344.843 773.439 344.032 777.535 344.032C782.74 344.032 787.22 345.013 790.975 346.976C794.73 348.939 797.844 351.541 800.319 354.784C802.794 358.027 804.628 361.824 805.823 366.176C807.018 370.443 807.615 374.923 807.615 379.616C807.615 384.053 807.018 388.32 805.823 392.416C804.628 396.512 802.794 400.139 800.319 403.296C797.93 406.453 794.9 408.971 791.231 410.848C787.647 412.725 783.423 413.664 778.559 413.664C774.463 413.664 770.666 412.853 767.167 411.232C763.754 409.525 760.938 407.051 758.719 403.808H758.463V435.168H740.287V345.824ZM819.049 320.608H837.225V412H819.049V320.608ZM850.769 366.176C851.025 361.909 852.092 358.368 853.969 355.552C855.846 352.736 858.236 350.475 861.137 348.768C864.038 347.061 867.281 345.867 870.865 345.184C874.534 344.416 878.204 344.032 881.873 344.032C885.201 344.032 888.572 344.288 891.985 344.8C895.398 345.227 898.513 346.123 901.329 347.488C904.145 348.853 906.449 350.773 908.241 353.248C910.033 355.637 910.929 358.837 910.929 362.848V397.28C910.929 400.267 911.1 403.125 911.441 405.856C911.782 408.587 912.38 410.635 913.233 412H894.801C894.46 410.976 894.161 409.952 893.905 408.928C893.734 407.819 893.606 406.709 893.521 405.6C890.62 408.587 887.206 410.677 883.281 411.872C879.356 413.067 875.345 413.664 871.249 413.664C868.092 413.664 865.148 413.28 862.417 412.512C859.686 411.744 857.297 410.549 855.249 408.928C853.201 407.307 851.58 405.259 850.385 402.784C849.276 400.309 848.721 397.365 848.721 393.952C848.721 390.197 849.361 387.125 850.641 384.736C852.006 382.261 853.713 380.299 855.761 378.848C857.894 377.397 860.284 376.331 862.929 375.648C865.66 374.88 868.39 374.283 871.121 373.856C873.852 373.429 876.54 373.088 879.185 372.832C881.83 372.576 884.177 372.192 886.225 371.68C888.273 371.168 889.894 370.443 891.089 369.504C892.284 368.48 892.838 367.029 892.753 365.152C892.753 363.189 892.412 361.653 891.729 360.544C891.132 359.349 890.278 358.453 889.169 357.856C888.145 357.173 886.908 356.747 885.457 356.576C884.092 356.32 882.598 356.192 880.977 356.192C877.393 356.192 874.577 356.96 872.529 358.496C870.481 360.032 869.286 362.592 868.945 366.176H850.769ZM892.753 379.616C891.985 380.299 891.004 380.853 889.809 381.28C888.7 381.621 887.462 381.92 886.097 382.176C884.817 382.432 883.452 382.645 882.001 382.816C880.55 382.987 879.1 383.2 877.649 383.456C876.284 383.712 874.918 384.053 873.553 384.48C872.273 384.907 871.121 385.504 870.097 386.272C869.158 386.955 868.39 387.851 867.793 388.96C867.196 390.069 866.897 391.477 866.897 393.184C866.897 394.805 867.196 396.171 867.793 397.28C868.39 398.389 869.201 399.285 870.225 399.968C871.249 400.565 872.444 400.992 873.809 401.248C875.174 401.504 876.582 401.632 878.033 401.632C881.617 401.632 884.39 401.035 886.353 399.84C888.316 398.645 889.766 397.237 890.705 395.616C891.644 393.909 892.198 392.203 892.369 390.496C892.625 388.789 892.753 387.424 892.753 386.4V379.616ZM925.037 345.824H942.317V355.04H942.701C945.005 351.2 947.992 348.427 951.661 346.72C955.33 344.928 959.085 344.032 962.925 344.032C967.789 344.032 971.757 344.715 974.829 346.08C977.986 347.36 980.461 349.195 982.253 351.584C984.045 353.888 985.282 356.747 985.965 360.16C986.733 363.488 987.117 367.2 987.117 371.296V412H968.941V374.624C968.941 369.163 968.088 365.109 966.381 362.464C964.674 359.733 961.645 358.368 957.293 358.368C952.344 358.368 948.76 359.861 946.541 362.848C944.322 365.749 943.213 370.571 943.213 377.312V412H925.037V345.824ZM1045.46 371.808C1044.6 367.2 1043.07 363.701 1040.85 361.312C1038.71 358.923 1035.43 357.728 1030.99 357.728C1028.09 357.728 1025.66 358.24 1023.7 359.264C1021.82 360.203 1020.28 361.397 1019.09 362.848C1017.98 364.299 1017.17 365.835 1016.66 367.456C1016.23 369.077 1015.97 370.528 1015.89 371.808H1045.46ZM1015.89 383.328C1016.14 389.216 1017.64 393.483 1020.37 396.128C1023.1 398.773 1027.02 400.096 1032.14 400.096C1035.81 400.096 1038.97 399.2 1041.62 397.408C1044.26 395.531 1045.88 393.568 1046.48 391.52H1062.48C1059.92 399.456 1055.99 405.131 1050.7 408.544C1045.41 411.957 1039.01 413.664 1031.5 413.664C1026.3 413.664 1021.61 412.853 1017.42 411.232C1013.24 409.525 1009.7 407.136 1006.8 404.064C1003.9 400.992 1001.64 397.323 1000.02 393.056C998.48 388.789 997.712 384.096 997.712 378.976C997.712 374.027 998.523 369.419 1000.14 365.152C1001.77 360.885 1004.07 357.216 1007.06 354.144C1010.04 350.987 1013.58 348.512 1017.68 346.72C1021.86 344.928 1026.47 344.032 1031.5 344.032C1037.14 344.032 1042.04 345.141 1046.22 347.36C1050.41 349.493 1053.82 352.395 1056.46 356.064C1059.19 359.733 1061.16 363.915 1062.35 368.608C1063.55 373.301 1063.97 378.208 1063.63 383.328H1015.89Z" fill="#fef3c0"/>
<path d="M79 290C79 281.163 86.1634 274 95 274H243C251.837 274 259 281.163 259 290V438C259 446.837 251.837 454 243 454H95C86.1634 454 79 446.837 79 438V290Z" fill="#fef3c0"/>
<path d="M205.524 317.593C205.524 311.19 210.714 306 217.117 306C223.519 306 228.71 311.19 228.71 317.593V409.407C228.71 415.81 223.519 421 217.117 421C210.714 421 205.524 415.81 205.524 409.407V317.593Z" fill="#143464" fill-opacity="0.6"/>
<path d="M164.718 318C164.718 311.373 170.09 306 176.718 306H185.177C191.805 306 197.177 311.373 197.177 318V409C197.177 415.627 191.805 421 185.177 421H176.718C170.09 421 164.718 415.627 164.718 409V318Z" fill="#143464" fill-opacity="0.8"/>
<path d="M110 318C110 311.373 115.373 306 122 306H144.371C150.998 306 156.371 311.373 156.371 318V409C156.371 415.627 150.998 421 144.371 421H122C115.373 421 110 415.627 110 409V318Z" fill="#143464"/>
<path d="M110 318C110 311.373 115.373 306 122 306H144.371C150.998 306 156.371 311.373 156.371 318V409C156.371 415.627 150.998 421 144.371 421H122C115.373 421 110 415.627 110 409V318Z" fill="#143464"/>
</svg>
