<svg width="1984" height="750" viewBox="0 0 1984 750" fill="none" xmlns="http://www.w3.org/2000/svg">
<rect width="1984" height="750" rx="20" fill="#536C54"/>
<path d="M310.576 533.608H328.752V582.632L351.664 558.824H373.168L348.208 583.144L375.984 625H353.968L335.792 595.432L328.752 602.216V625H310.576V533.608ZM398.54 591.976C398.54 594.621 398.796 597.224 399.308 599.784C399.82 602.259 400.673 604.52 401.868 606.568C403.148 608.531 404.812 610.109 406.86 611.304C408.908 612.499 411.468 613.096 414.54 613.096C417.612 613.096 420.172 612.499 422.22 611.304C424.353 610.109 426.017 608.531 427.212 606.568C428.492 604.52 429.388 602.259 429.9 599.784C430.412 597.224 430.668 594.621 430.668 591.976C430.668 589.331 430.412 586.728 429.9 584.168C429.388 581.608 428.492 579.347 427.212 577.384C426.017 575.421 424.353 573.843 422.22 572.648C420.172 571.368 417.612 570.728 414.54 570.728C411.468 570.728 408.908 571.368 406.86 572.648C404.812 573.843 403.148 575.421 401.868 577.384C400.673 579.347 399.82 581.608 399.308 584.168C398.796 586.728 398.54 589.331 398.54 591.976ZM380.364 591.976C380.364 586.685 381.175 581.907 382.796 577.64C384.417 573.288 386.721 569.619 389.708 566.632C392.695 563.56 396.279 561.213 400.46 559.592C404.641 557.885 409.335 557.032 414.54 557.032C419.745 557.032 424.439 557.885 428.62 559.592C432.887 561.213 436.513 563.56 439.5 566.632C442.487 569.619 444.791 573.288 446.412 577.64C448.033 581.907 448.844 586.685 448.844 591.976C448.844 597.267 448.033 602.045 446.412 606.312C444.791 610.579 442.487 614.248 439.5 617.32C436.513 620.307 432.887 622.611 428.62 624.232C424.439 625.853 419.745 626.664 414.54 626.664C409.335 626.664 404.641 625.853 400.46 624.232C396.279 622.611 392.695 620.307 389.708 617.32C386.721 614.248 384.417 610.579 382.796 606.312C381.175 602.045 380.364 597.267 380.364 591.976ZM460.662 558.824H477.942V568.04H478.326C480.63 564.2 483.617 561.427 487.286 559.72C490.955 557.928 494.71 557.032 498.55 557.032C503.414 557.032 507.382 557.715 510.454 559.08C513.611 560.36 516.086 562.195 517.878 564.584C519.67 566.888 520.907 569.747 521.59 573.16C522.358 576.488 522.742 580.2 522.742 584.296V625H504.566V587.624C504.566 582.163 503.713 578.109 502.006 575.464C500.299 572.733 497.27 571.368 492.918 571.368C487.969 571.368 484.385 572.861 482.166 575.848C479.947 578.749 478.838 583.571 478.838 590.312V625H460.662V558.824ZM559.577 558.824H572.889V570.984H559.577V603.752C559.577 606.824 560.089 608.872 561.113 609.896C562.137 610.92 564.185 611.432 567.257 611.432C568.281 611.432 569.262 611.389 570.201 611.304C571.14 611.219 572.036 611.091 572.889 610.92V625C571.353 625.256 569.646 625.427 567.769 625.512C565.892 625.597 564.057 625.64 562.265 625.64C559.449 625.64 556.761 625.427 554.201 625C551.726 624.659 549.508 623.933 547.545 622.824C545.668 621.715 544.174 620.136 543.065 618.088C541.956 616.04 541.401 613.352 541.401 610.024V570.984H530.393V558.824H541.401V538.984H559.577V558.824ZM581.537 558.824H598.817V571.112H599.073C599.926 569.064 601.078 567.187 602.529 565.48C603.98 563.688 605.644 562.195 607.521 561C609.398 559.72 611.404 558.739 613.537 558.056C615.67 557.373 617.889 557.032 620.193 557.032C621.388 557.032 622.71 557.245 624.161 557.672V574.568C623.308 574.397 622.284 574.269 621.089 574.184C619.894 574.013 618.742 573.928 617.633 573.928C614.305 573.928 611.489 574.483 609.185 575.592C606.881 576.701 605.004 578.237 603.553 580.2C602.188 582.077 601.206 584.296 600.609 586.856C600.012 589.416 599.713 592.189 599.713 595.176V625H581.537V558.824ZM645.165 591.976C645.165 594.621 645.421 597.224 645.933 599.784C646.445 602.259 647.298 604.52 648.493 606.568C649.773 608.531 651.437 610.109 653.485 611.304C655.533 612.499 658.093 613.096 661.165 613.096C664.237 613.096 666.797 612.499 668.845 611.304C670.978 610.109 672.642 608.531 673.837 606.568C675.117 604.52 676.013 602.259 676.525 599.784C677.037 597.224 677.293 594.621 677.293 591.976C677.293 589.331 677.037 586.728 676.525 584.168C676.013 581.608 675.117 579.347 673.837 577.384C672.642 575.421 670.978 573.843 668.845 572.648C666.797 571.368 664.237 570.728 661.165 570.728C658.093 570.728 655.533 571.368 653.485 572.648C651.437 573.843 649.773 575.421 648.493 577.384C647.298 579.347 646.445 581.608 645.933 584.168C645.421 586.728 645.165 589.331 645.165 591.976ZM626.989 591.976C626.989 586.685 627.8 581.907 629.421 577.64C631.042 573.288 633.346 569.619 636.333 566.632C639.32 563.56 642.904 561.213 647.085 559.592C651.266 557.885 655.96 557.032 661.165 557.032C666.37 557.032 671.064 557.885 675.245 559.592C679.512 561.213 683.138 563.56 686.125 566.632C689.112 569.619 691.416 573.288 693.037 577.64C694.658 581.907 695.469 586.685 695.469 591.976C695.469 597.267 694.658 602.045 693.037 606.312C691.416 610.579 689.112 614.248 686.125 617.32C683.138 620.307 679.512 622.611 675.245 624.232C671.064 625.853 666.37 626.664 661.165 626.664C655.96 626.664 651.266 625.853 647.085 624.232C642.904 622.611 639.32 620.307 636.333 617.32C633.346 614.248 631.042 610.579 629.421 606.312C627.8 602.045 626.989 597.267 626.989 591.976ZM707.799 533.608H725.975V625H707.799V533.608ZM773.695 613.096C776.682 613.096 779.156 612.499 781.119 611.304C783.167 610.109 784.788 608.573 785.983 606.696C787.263 604.733 788.159 602.472 788.671 599.912C789.183 597.352 789.439 594.749 789.439 592.104C789.439 589.459 789.14 586.856 788.543 584.296C788.031 581.736 787.135 579.475 785.855 577.512C784.575 575.464 782.911 573.843 780.863 572.648C778.9 571.368 776.468 570.728 773.567 570.728C770.58 570.728 768.063 571.368 766.015 572.648C764.052 573.843 762.431 575.421 761.151 577.384C759.956 579.347 759.103 581.608 758.591 584.168C758.079 586.728 757.823 589.373 757.823 592.104C757.823 594.749 758.079 597.352 758.591 599.912C759.188 602.472 760.084 604.733 761.279 606.696C762.559 608.573 764.223 610.109 766.271 611.304C768.319 612.499 770.794 613.096 773.695 613.096ZM740.287 558.824H757.567V567.272H757.823C760.042 563.688 762.858 561.085 766.271 559.464C769.684 557.843 773.439 557.032 777.535 557.032C782.74 557.032 787.22 558.013 790.975 559.976C794.73 561.939 797.844 564.541 800.319 567.784C802.794 571.027 804.628 574.824 805.823 579.176C807.018 583.443 807.615 587.923 807.615 592.616C807.615 597.053 807.018 601.32 805.823 605.416C804.628 609.512 802.794 613.139 800.319 616.296C797.93 619.453 794.9 621.971 791.231 623.848C787.647 625.725 783.423 626.664 778.559 626.664C774.463 626.664 770.666 625.853 767.167 624.232C763.754 622.525 760.938 620.051 758.719 616.808H758.463V648.168H740.287V558.824ZM819.049 533.608H837.225V625H819.049V533.608ZM850.769 579.176C851.025 574.909 852.092 571.368 853.969 568.552C855.846 565.736 858.236 563.475 861.137 561.768C864.038 560.061 867.281 558.867 870.865 558.184C874.534 557.416 878.204 557.032 881.873 557.032C885.201 557.032 888.572 557.288 891.985 557.8C895.398 558.227 898.513 559.123 901.329 560.488C904.145 561.853 906.449 563.773 908.241 566.248C910.033 568.637 910.929 571.837 910.929 575.848V610.28C910.929 613.267 911.1 616.125 911.441 618.856C911.782 621.587 912.38 623.635 913.233 625H894.801C894.46 623.976 894.161 622.952 893.905 621.928C893.734 620.819 893.606 619.709 893.521 618.6C890.62 621.587 887.206 623.677 883.281 624.872C879.356 626.067 875.345 626.664 871.249 626.664C868.092 626.664 865.148 626.28 862.417 625.512C859.686 624.744 857.297 623.549 855.249 621.928C853.201 620.307 851.58 618.259 850.385 615.784C849.276 613.309 848.721 610.365 848.721 606.952C848.721 603.197 849.361 600.125 850.641 597.736C852.006 595.261 853.713 593.299 855.761 591.848C857.894 590.397 860.284 589.331 862.929 588.648C865.66 587.88 868.39 587.283 871.121 586.856C873.852 586.429 876.54 586.088 879.185 585.832C881.83 585.576 884.177 585.192 886.225 584.68C888.273 584.168 889.894 583.443 891.089 582.504C892.284 581.48 892.838 580.029 892.753 578.152C892.753 576.189 892.412 574.653 891.729 573.544C891.132 572.349 890.278 571.453 889.169 570.856C888.145 570.173 886.908 569.747 885.457 569.576C884.092 569.32 882.598 569.192 880.977 569.192C877.393 569.192 874.577 569.96 872.529 571.496C870.481 573.032 869.286 575.592 868.945 579.176H850.769ZM892.753 592.616C891.985 593.299 891.004 593.853 889.809 594.28C888.7 594.621 887.462 594.92 886.097 595.176C884.817 595.432 883.452 595.645 882.001 595.816C880.55 595.987 879.1 596.2 877.649 596.456C876.284 596.712 874.918 597.053 873.553 597.48C872.273 597.907 871.121 598.504 870.097 599.272C869.158 599.955 868.39 600.851 867.793 601.96C867.196 603.069 866.897 604.477 866.897 606.184C866.897 607.805 867.196 609.171 867.793 610.28C868.39 611.389 869.201 612.285 870.225 612.968C871.249 613.565 872.444 613.992 873.809 614.248C875.174 614.504 876.582 614.632 878.033 614.632C881.617 614.632 884.39 614.035 886.353 612.84C888.316 611.645 889.766 610.237 890.705 608.616C891.644 606.909 892.198 605.203 892.369 603.496C892.625 601.789 892.753 600.424 892.753 599.4V592.616ZM925.037 558.824H942.317V568.04H942.701C945.005 564.2 947.992 561.427 951.661 559.72C955.33 557.928 959.085 557.032 962.925 557.032C967.789 557.032 971.757 557.715 974.829 559.08C977.986 560.36 980.461 562.195 982.253 564.584C984.045 566.888 985.282 569.747 985.965 573.16C986.733 576.488 987.117 580.2 987.117 584.296V625H968.941V587.624C968.941 582.163 968.088 578.109 966.381 575.464C964.674 572.733 961.645 571.368 957.293 571.368C952.344 571.368 948.76 572.861 946.541 575.848C944.322 578.749 943.213 583.571 943.213 590.312V625H925.037V558.824ZM1045.46 584.808C1044.6 580.2 1043.07 576.701 1040.85 574.312C1038.71 571.923 1035.43 570.728 1030.99 570.728C1028.09 570.728 1025.66 571.24 1023.7 572.264C1021.82 573.203 1020.28 574.397 1019.09 575.848C1017.98 577.299 1017.17 578.835 1016.66 580.456C1016.23 582.077 1015.97 583.528 1015.89 584.808H1045.46ZM1015.89 596.328C1016.14 602.216 1017.64 606.483 1020.37 609.128C1023.1 611.773 1027.02 613.096 1032.14 613.096C1035.81 613.096 1038.97 612.2 1041.62 610.408C1044.26 608.531 1045.88 606.568 1046.48 604.52H1062.48C1059.92 612.456 1055.99 618.131 1050.7 621.544C1045.41 624.957 1039.01 626.664 1031.5 626.664C1026.3 626.664 1021.61 625.853 1017.42 624.232C1013.24 622.525 1009.7 620.136 1006.8 617.064C1003.9 613.992 1001.64 610.323 1000.02 606.056C998.48 601.789 997.712 597.096 997.712 591.976C997.712 587.027 998.523 582.419 1000.14 578.152C1001.77 573.885 1004.07 570.216 1007.06 567.144C1010.04 563.987 1013.58 561.512 1017.68 559.72C1021.86 557.928 1026.47 557.032 1031.5 557.032C1037.14 557.032 1042.04 558.141 1046.22 560.36C1050.41 562.493 1053.82 565.395 1056.46 569.064C1059.19 572.733 1061.16 576.915 1062.35 581.608C1063.55 586.301 1063.97 591.208 1063.63 596.328H1015.89Z" fill="white"/>
<path d="M79 503C79 494.163 86.1634 487 95 487H243C251.837 487 259 494.163 259 503V651C259 659.837 251.837 667 243 667H95C86.1634 667 79 659.837 79 651V503Z" fill="#F6EFD1"/>
<path d="M205.524 530.593C205.524 524.19 210.714 519 217.117 519C223.519 519 228.71 524.19 228.71 530.593V622.407C228.71 628.81 223.519 634 217.117 634C210.714 634 205.524 628.81 205.524 622.407V530.593Z" fill="#536C54" fill-opacity="0.6"/>
<path d="M164.718 531C164.718 524.373 170.09 519 176.718 519H185.177C191.805 519 197.177 524.373 197.177 531V622C197.177 628.627 191.805 634 185.177 634H176.718C170.09 634 164.718 628.627 164.718 622V531Z" fill="#536C54" fill-opacity="0.8"/>
<path d="M110 531C110 524.373 115.373 519 122 519H144.371C150.998 519 156.371 524.373 156.371 531V622C156.371 628.627 150.998 634 144.371 634H122C115.373 634 110 628.627 110 622V531Z" fill="#536C54"/>
<path d="M110 531C110 524.373 115.373 519 122 519H144.371C150.998 519 156.371 524.373 156.371 531V622C156.371 628.627 150.998 634 144.371 634H122C115.373 634 110 628.627 110 622V531Z" fill="#536C54"/>
</svg>